<?xml version="1.0" standalone="no"?>
<!DOCTYPE svg PUBLIC "-//W3C//DTD SVG 20010904//EN"
 "http://www.w3.org/TR/2001/REC-SVG-20010904/DTD/svg10.dtd">
<svg version="1.0" xmlns="http://www.w3.org/2000/svg"
 width="40.000000pt" height="40.000000pt" viewBox="0 0 40.000000 40.000000"
 preserveAspectRatio="xMidYMid meet">
<metadata>
Created by potrace 1.16, written by Peter Selinger 2001-2019
</metadata>
<g transform="translate(0.000000,40.000000) scale(0.007813,-0.007813)"
fill="#000000" stroke="none">
<path d="M2413 4851 c-29 -11 -65 -28 -80 -39 -35 -25 -97 -91 -111 -117 -9
-17 -19 -19 -89 -17 -49 2 -96 -3 -128 -12 l-49 -15 -51 34 c-130 89 -314 81
-434 -21 -62 -52 -121 -167 -121 -235 0 -21 -11 -29 -65 -53 -124 -54 -215
-190 -215 -320 0 -40 -4 -47 -36 -66 -19 -13 -53 -44 -74 -71 -111 -140 -99
-343 27 -471 l47 -48 -22 -22 c-26 -29 -58 -100 -68 -152 -4 -23 -81 -166
-193 -355 l-186 -316 0 -525 c0 -518 0 -526 22 -565 25 -47 54 -75 103 -101
29 -15 67 -19 225 -24 l189 -5 43 -428 c28 -286 48 -443 59 -472 23 -61 72
-115 135 -150 l54 -30 1115 1 c613 0 1131 1 1150 1 19 0 69 -1 110 -1 61 0 84
4 124 24 106 54 168 148 174 265 5 97 -22 167 -94 240 -30 31 -54 64 -54 73 0
10 -9 35 -20 57 -19 38 -19 43 -5 199 9 89 18 175 20 193 l6 31 182 4 c173 3
185 4 232 29 63 32 102 87 116 162 6 37 9 229 7 535 -3 460 -4 478 -24 517
-11 22 -94 164 -183 315 -123 206 -167 290 -178 335 -18 77 -51 132 -111 186
l-49 44 23 45 c55 108 57 239 5 345 -37 75 -110 145 -177 171 -38 15 -45 21
-39 38 3 12 11 49 17 83 27 151 -61 307 -210 376 -67 31 -207 31 -274 0 l-46
-21 -34 35 c-54 55 -146 94 -236 99 l-76 3 -20 41 c-26 57 -96 123 -163 156
-75 37 -193 44 -270 15z m194 -152 c58 -22 122 -108 123 -165 0 -12 10 -34 21
-49 20 -24 26 -26 68 -21 132 18 155 18 201 -6 32 -16 56 -40 83 -81 45 -68
75 -84 117 -62 16 8 32 19 35 25 4 6 25 20 47 31 33 17 55 20 103 17 105 -7
175 -72 183 -173 6 -74 -10 -112 -73 -177 -60 -62 -66 -84 -32 -122 26 -30 37
-32 99 -22 132 21 238 -69 238 -202 0 -98 -67 -202 -130 -202 -33 0 -122 -46
-154 -79 l-29 -30 -39 34 c-126 108 -300 108 -426 0 l-39 -34 -27 28 c-107
112 -313 112 -439 1 l-34 -29 -29 30 c-101 105 -302 110 -417 9 l-44 -39 -22
23 c-35 37 -115 76 -176 86 -97 16 -202 -16 -271 -81 l-30 -29 -28 29 c-44 46
-136 82 -229 90 -45 4 -95 15 -112 23 -85 45 -125 147 -93 239 19 55 47 86
109 119 33 17 64 40 69 50 6 12 8 46 4 85 -14 140 51 215 209 240 53 8 66 34
65 122 -1 63 2 77 28 119 37 60 97 94 166 94 60 0 109 -24 163 -79 47 -49 77
-52 142 -14 55 32 140 35 194 8 70 -37 118 -14 139 65 13 49 51 95 99 120 40
21 124 26 168 9z m-267 -1374 c33 -17 66 -54 79 -88 7 -17 11 -109 11 -221 0
-214 7 -248 51 -268 27 -12 29 -16 29 -72 l0 -58 -41 36 c-22 20 -51 41 -65
46 -14 6 -85 10 -159 10 -74 0 -136 4 -139 8 -2 4 -6 123 -8 263 l-3 255 28
37 c54 71 139 91 217 52z m1015 -13 c74 -61 78 -85 60 -338 -8 -115 -15 -221
-15 -236 l0 -28 -166 0 -167 0 7 238 c4 130 12 254 17 275 14 52 68 104 121
114 50 11 114 -1 143 -25z m-2008 11 c19 -9 46 -34 61 -55 24 -37 26 -51 42
-291 9 -139 14 -255 10 -260 -3 -4 -80 -6 -171 -5 l-164 3 -19 200 c-27 279
-15 343 73 402 41 28 117 31 168 6z m1024 -789 c76 -82 181 -84 271 -5 l36 31
788 0 788 0 23 -22 23 -21 0 -486 c0 -484 0 -485 -22 -508 l-21 -23 -777 0
-776 0 -27 84 c-15 46 -37 96 -48 110 -62 79 -190 73 -246 -10 -10 -15 -30
-61 -44 -103 l-26 -76 -776 -3 c-766 -2 -777 -2 -797 18 -19 19 -20 33 -20
510 l0 489 22 21 c22 20 31 20 813 20 l792 0 24 -26z m139 -1173 l0 -230 -27
-13 c-51 -24 -53 -38 -53 -385 l0 -323 -125 0 -125 0 0 78 c0 82 -15 522 -25
735 l-6 127 124 0 c150 0 151 1 197 143 17 53 33 97 35 97 3 0 5 -103 5 -229z
m-955 -23 c2 -7 16 -193 30 -413 14 -220 28 -426 31 -457 l6 -58 -94 0 c-98 0
-121 8 -160 55 -23 27 -23 29 -63 435 -19 195 -37 376 -41 403 l-6 47 146 0
c108 0 148 -3 151 -12z m1750 -55 c-3 -38 -10 -132 -15 -211 l-10 -143 -41
-54 c-40 -54 -69 -132 -69 -191 0 -45 26 -126 55 -168 15 -22 25 -51 25 -71
l0 -35 -130 0 -130 0 0 53 c0 68 18 584 26 755 l6 132 145 0 144 0 -6 -67z
m414 -388 c32 -30 42 -47 53 -97 12 -55 18 -66 58 -96 62 -48 82 -82 82 -143
0 -83 -66 -149 -149 -149 -54 0 -92 19 -127 62 -56 70 -56 70 -118 63 -46 -5
-67 -2 -102 14 -127 56 -119 226 12 282 25 11 65 38 89 59 40 37 47 40 103 40
55 0 63 -3 99 -35z"/>
<path d="M1807 4226 c-22 -13 -63 -27 -92 -31 -82 -10 -93 -28 -93 -153 -1
-123 7 -135 96 -147 118 -15 137 -4 152 90 6 39 19 70 38 94 58 73 64 102 31
145 -27 34 -79 35 -132 2z"/>
<path d="M2749 4119 c-18 -7 -34 -28 -54 -70 -20 -44 -41 -70 -76 -97 -70 -52
-76 -89 -23 -151 39 -47 74 -42 140 18 66 61 122 77 207 59 86 -18 108 3 133
129 5 26 1 37 -19 57 -24 24 -32 26 -104 24 -53 -1 -87 3 -108 14 -45 23 -67
27 -96 17z"/>
<path d="M960 2438 c-52 -27 -78 -60 -90 -114 -5 -21 -10 -154 -10 -294 0
-140 5 -273 10 -294 12 -54 38 -87 90 -113 l44 -23 574 0 c542 0 575 1 610 19
95 48 101 74 101 411 0 339 -7 367 -104 411 -37 17 -78 19 -610 19 l-571 0
-44 -22z"/>
<path d="M2835 2441 c-48 -22 -69 -44 -90 -94 -12 -30 -15 -87 -15 -319 0
-320 4 -340 76 -394 l37 -29 587 -3 586 -2 44 23 c28 15 53 38 67 63 22 38 23
47 23 343 l0 304 -25 43 c-41 69 -84 84 -248 84 -150 0 -179 -8 -198 -51 l-11
-29 -99 0 c-96 0 -100 1 -109 24 -20 54 -32 56 -320 56 -236 0 -269 -2 -305
-19z"/>
<path d="M512 1025 c-55 -16 -91 -35 -132 -71 -18 -15 -44 -24 -91 -29 -116
-11 -210 -73 -262 -170 -32 -59 -31 -211 1 -276 27 -54 83 -114 132 -139 44
-23 136 -40 173 -33 19 4 46 -3 83 -22 78 -39 177 -45 257 -15 109 41 197 162
197 271 0 22 7 56 16 77 23 55 21 168 -5 226 -33 76 -76 122 -144 156 -76 37
-152 45 -225 25z m147 -160 c76 -39 106 -117 76 -200 -10 -27 -19 -73 -20
-101 -3 -61 -28 -108 -73 -136 -41 -25 -109 -26 -152 -1 -90 52 -88 51 -136
41 -62 -13 -108 -3 -149 33 -64 56 -70 150 -14 214 40 45 83 58 163 50 68 -8
78 -3 117 52 39 55 129 79 188 48z"/>
<path d="M4487 1030 c-132 -34 -221 -137 -237 -278 -4 -37 -13 -80 -20 -97
-15 -40 -15 -143 0 -191 55 -167 239 -255 403 -194 29 11 72 36 94 55 34 29
49 35 85 35 118 0 226 67 278 174 30 60 32 71 29 148 -3 63 -10 94 -27 128
-56 107 -142 161 -267 168 -57 3 -94 11 -130 28 -57 27 -151 38 -208 24z m140
-168 c17 -9 43 -26 58 -36 23 -17 32 -18 78 -7 86 19 157 -12 191 -83 9 -19
16 -47 16 -63 -1 -47 -35 -108 -75 -133 -33 -20 -45 -22 -113 -16 l-76 6 -45
-49 c-57 -61 -78 -71 -138 -71 -63 0 -109 28 -133 83 -25 54 -25 74 1 139 11
28 18 61 15 73 -7 29 10 87 36 120 42 53 126 70 185 37z"/>
</g>
</svg>
